# xmcd
#
# Track frame offsets: 
#        150
#        13488
#        29164
#        50684
#        65028
#        81534
#        99115
#        115105
#        131090
#        145199
#        167895
#        183012
#
# Disc length: 2622 seconds
#
# Revision: 0
# Processed by: cddbd v1.5.2PL0 Copyright (c) Steve Scherf et al.
# Submitted via: ExactAudioCopy v0.99pb5
#
DISCID=af0a3c0c
DTITLE=The Moongang - Taxi
DYEAR=2012
DGENRE=Blues
TTITLE0=01.Taxi
TTITLE1=02.Rainy Day
TTITLE2=03.Exaltation
TTITLE3=04.Future
TTITLE4=05.The Doors Are Open
TTITLE5=06.The Message
TTITLE6=07.Over You
TTITLE7=08.Chooser
TTITLE8=09.More And More
TTITLE9=10.Ty
TTITLE10=11.Swift
TTITLE11=12.Nie calkiem smutnz blues
EXTD=
EXTT0=
EXTT1=
EXTT2=
EXTT3=
EXTT4=
EXTT5=
EXTT6=
EXTT7=
EXTT8=
EXTT9=
EXTT10=
EXTT11=
PLAYORDER=
